<?xml version="1.0" encoding="UTF-8" standalone="no"?>
<!DOCTYPE svg PUBLIC "-//W3C//DTD SVG 1.1//EN"
 "http://www.w3.org/Graphics/SVG/1.1/DTD/svg11.dtd">
<!-- Generated by graphviz version 9.0.0 (20230911.1827)
 -->
<!-- Title: G Pages: 1 -->
<svg width="938pt" height="125pt"
 viewBox="0.00 0.00 938.25 125.00" xmlns="http://www.w3.org/2000/svg" xmlns:xlink="http://www.w3.org/1999/xlink">
<g id="graph0" class="graph" transform="scale(1 1) rotate(0) translate(4 121)">
<title>G</title>
<polygon fill="white" stroke="none" points="-4,4 -4,-121 934.25,-121 934.25,4 -4,4"/>
<!-- ansible_host.webserver -->
<g id="node1" class="node">
<title>ansible_host.webserver</title>
<polygon fill="none" stroke="black" points="925.75,-63 753.75,-63 753.75,-27 925.75,-27 925.75,-63"/>
<text text-anchor="middle" x="839.75" y="-41.45" font-family="sans-serif" font-size="14.00">ansible_host.webserver</text>
</g>
<!-- hcloud_server.webserver -->
<g id="node5" class="node">
<title>hcloud_server.webserver</title>
<polygon fill="none" stroke="black" points="713.25,-63 533,-63 533,-27 713.25,-27 713.25,-63"/>
<text text-anchor="middle" x="623.12" y="-41.45" font-family="sans-serif" font-size="14.00">hcloud_server.webserver</text>
</g>
<!-- ansible_host.webserver&#45;&gt;hcloud_server.webserver -->
<g id="edge1" class="edge">
<title>ansible_host.webserver&#45;&gt;hcloud_server.webserver</title>
<path fill="none" stroke="black" d="M753.31,-45C744,-45 734.46,-45 724.99,-45"/>
<polygon fill="black" stroke="black" points="725.01,-41.5 715.01,-45 725.01,-48.5 725.01,-41.5"/>
</g>
<!-- hcloud_firewall.public -->
<g id="node2" class="node">
<title>hcloud_firewall.public</title>
<polygon fill="none" stroke="black" points="434.38,-90 276.62,-90 276.62,-54 434.38,-54 434.38,-90"/>
<text text-anchor="middle" x="355.5" y="-68.45" font-family="sans-serif" font-size="14.00">hcloud_firewall.public</text>
</g>
<!-- hcloud_network.primary -->
<g id="node3" class="node">
<title>hcloud_network.primary</title>
<polygon fill="none" stroke="black" points="178,-36 0,-36 0,0 178,0 178,-36"/>
<text text-anchor="middle" x="89" y="-14.45" font-family="sans-serif" font-size="14.00">hcloud_network.primary</text>
</g>
<!-- hcloud_network_subnet.primary_subnet -->
<g id="node4" class="node">
<title>hcloud_network_subnet.primary_subnet</title>
<polygon fill="none" stroke="black" points="497,-36 214,-36 214,0 497,0 497,-36"/>
<text text-anchor="middle" x="355.5" y="-14.45" font-family="sans-serif" font-size="14.00">hcloud_network_subnet.primary_subnet</text>
</g>
<!-- hcloud_network_subnet.primary_subnet&#45;&gt;hcloud_network.primary -->
<g id="edge2" class="edge">
<title>hcloud_network_subnet.primary_subnet&#45;&gt;hcloud_network.primary</title>
<path fill="none" stroke="black" d="M213.73,-18C205.61,-18 197.53,-18 189.61,-18"/>
<polygon fill="black" stroke="black" points="189.67,-14.5 179.67,-18 189.67,-21.5 189.67,-14.5"/>
</g>
<!-- hcloud_server.webserver&#45;&gt;hcloud_firewall.public -->
<g id="edge3" class="edge">
<title>hcloud_server.webserver&#45;&gt;hcloud_firewall.public</title>
<path fill="none" stroke="black" d="M532.57,-54.1C504.64,-56.94 473.84,-60.07 445.92,-62.91"/>
<polygon fill="black" stroke="black" points="445.66,-59.42 436.06,-63.91 446.36,-66.38 445.66,-59.42"/>
</g>
<!-- hcloud_server.webserver&#45;&gt;hcloud_network_subnet.primary_subnet -->
<g id="edge4" class="edge">
<title>hcloud_server.webserver&#45;&gt;hcloud_network_subnet.primary_subnet</title>
<path fill="none" stroke="black" d="M532.57,-35.9C524.7,-35.1 516.6,-34.27 508.4,-33.44"/>
<polygon fill="black" stroke="black" points="508.99,-29.98 498.68,-32.45 508.28,-36.95 508.99,-29.98"/>
</g>
<!-- hcloud_ssh_key.provision -->
<g id="node6" class="node">
<title>hcloud_ssh_key.provision</title>
<polygon fill="none" stroke="black" points="930.25,-117 749.25,-117 749.25,-81 930.25,-81 930.25,-117"/>
<text text-anchor="middle" x="839.75" y="-95.45" font-family="sans-serif" font-size="14.00">hcloud_ssh_key.provision</text>
</g>
</g>
</svg>
